<svg xmlns="http://www.w3.org/2000/svg" width="24" height="24" viewBox="0 0 24 24">
    <path fill="rgba(0,0,0,0)" d="M0 0H24V24H0z"/>
    <path fill="#1d1d1d" d="M596 3143h-1a1 1 0 0 1-1-1v-1h-12v1a1 1 0 0 1-1 1h-1a1 1 0 0 1-1-1v-8l2.08-5.99a1.5 1.5 0 0 1 1.42-1.01h11a1.5 1.5 0 0 1 1.42 1.01L597 3134v8a1 1 0 0 1-1 1zm-15-9v5h14v-5zm1.85-5l-1.08 3.11h12.45l-1.08-3.11h-10.29zm9.65 9a1.5 1.5 0 1 1 1.5-1.5 1.5 1.5 0 0 1-1.5 1.5zm-9 0a1.5 1.5 0 1 1 1.5-1.5 1.5 1.5 0 0 1-1.5 1.5z" transform="translate(-576 -3122)"/>
</svg>
