<svg xmlns="http://www.w3.org/2000/svg" id="ic_kiost" width="24" height="24" viewBox="0 0 24 24">
    <defs>
        <style>
            .cls-2{fill:#1d1d1d}
        </style>
    </defs>
    <path id="Path" fill="rgba(0,0,0,0)" d="M0 0H24V24H0z"/>
    <path id="Icon" d="M827 2876h6v2h-14v-2h6v-3.94c-3.31-.55 5.46-.34 1.97.06h.03z" class="cls-2" transform="translate(-814 -2855)"/>
    <path id="Icon-2" d="M457 2745h-10a2 2 0 0 1-2-2v-13a2 2 0 0 1 2-2h10a2 2 0 0 1 2 2v13a2 2 0 0 1-2 2zm-10-15v13h10v-13z" class="cls-2" transform="translate(-440 -2727)"/>
</svg>
