<svg xmlns="http://www.w3.org/2000/svg" id="ic_location_on" width="24" height="24" viewBox="0 0 24 24">
    <defs>
        <style>
            .cls-2{fill:#1d1d1d}
        </style>
    </defs>
    <path id="Path" fill="rgba(0,0,0,0)" d="M0 0H24V24H0z"/>
    <path id="Icon" d="M656 1282a45.794 45.794 0 0 1-3.5-4.53c-1.6-2.366-3.5-5.757-3.5-8.469a7 7 0 1 1 14 0c0 2.712-1.9 6.1-3.5 8.469a45.794 45.794 0 0 1-3.5 4.53zm0-18a5.006 5.006 0 0 0-5 5c0 3.124 3.5 7.95 5 9.879 1.5-1.906 5-6.683 5-9.879a5.006 5.006 0 0 0-5-5z" class="cls-2" transform="translate(-644 -1260)"/>
    <circle id="Icon-2" cx="2.5" cy="2.5" r="2.5" class="cls-2" transform="translate(9.5 6.5)"/>
</svg>
