<svg xmlns="http://www.w3.org/2000/svg" width="24" height="24" viewBox="0 0 24 24">
    <path fill="rgba(0,0,0,0)" d="M0 0H24V24H0z"/>
    <path fill="#1d1d1d" d="M426 1281a17 17 0 0 1-17-17 1 1 0 0 1 1-1h3.5a1 1 0 0 1 1 1 11.369 11.369 0 0 0 .57 3.57 1 1 0 0 1-.25 1.02l-2.2 2.2a15.234 15.234 0 0 0 6.59 6.59l2.2-2.2a1.019 1.019 0 0 1 .71-.29.822.822 0 0 1 .31.05 11.356 11.356 0 0 0 3.569.57 1 1 0 0 1 1 1v3.49a1 1 0 0 1-.999 1zm-3.6-3.98l-1.2 1.19a15.49 15.49 0 0 0 3.8.75v-1.49a12.866 12.866 0 0 1-2.6-.45zM411.03 1265a14.864 14.864 0 0 0 .76 3.79l1.2-1.2a12.266 12.266 0 0 1-.45-2.59z" transform="translate(-406 -1260)"/>
</svg>
